<?xml version="1.0" standalone="no"?><!DOCTYPE svg PUBLIC "-//W3C//DTD SVG 1.1//EN" "http://www.w3.org/Graphics/SVG/1.1/DTD/svg11.dtd"><svg class="icon" width="32px" height="32.00px" viewBox="0 0 1024 1024" version="1.1" xmlns="http://www.w3.org/2000/svg"><path fill="#8a8a8a" d="M781.369275 30.047034C863.874277-34.698912 965.484159 10.737353 965.484159 113.429748v797.226519c0 102.370567-101.63914 148.099403-184.114884 83.382715l-482.742029-378.79158c-70.070737-55.003334-70.04148-151.434712 0-206.408789l482.742029-378.791579z m48.391231 56.641732l-482.742029 378.820836c-32.680173 25.65847-32.738687 67.379084 0 93.066812l482.742029 378.791579c32.70943 25.65847 59.304127 13.750834 59.304127-26.711726V113.429748c0-40.784387-26.536183-52.42871-59.304127-26.740982zM58.514286 39.35079V983.916028c0 20.216651 17.115399 36.600623 38.209763 36.600623 21.094364 0 38.209763-16.383972 38.209763-36.600623V39.35079c0-20.216651-17.115399-36.62988-38.209763-36.62988C75.629685 2.72091 58.514286 19.104882 58.514286 39.35079z" /></svg>