<?xml version="1.0" standalone="no"?><!DOCTYPE svg PUBLIC "-//W3C//DTD SVG 1.1//EN" "http://www.w3.org/Graphics/SVG/1.1/DTD/svg11.dtd"><svg class="icon" width="32px" height="32.00px" viewBox="0 0 1024 1024" version="1.1" xmlns="http://www.w3.org/2000/svg"><path fill="#8a8a8a" d="M84.417241 106.957128V858.701157c0 96.546227 95.814816 139.626323 173.636926 78.626662L713.137972 580.033639c66.046396-51.930167 65.973255-142.77139 0-194.555275L258.054167 28.257325C180.232057-32.669195 84.417241 10.118337 84.417241 106.957128z m595.222116 331.987366c30.792395 24.136557 30.865536 63.486458 0 87.769297l-476.367859 375.945156c-18.577835 19.748092-58.951711 3.36449-55.879786-25.160532L138.614782 89.256987c-1.316539-29.256432 30.719254-42.275545 55.879786-25.160532L679.639357 438.871353zM929.269866 37.107396v890.565801c0 19.016681-10.971162 32.328358-30.865536 32.328357s-30.865536-13.238536-30.865536-32.328357V37.107396c0-19.016681 10.971162-37.082528 30.865536-37.082528s30.865536 17.992706 30.865536 37.082528z"  /></svg>